<svg viewBox="0 0 120 116" fill="none" xmlns="http://www.w3.org/2000/svg">
<path fill-rule="evenodd" clip-rule="evenodd" d="M119.052 57.804C119.052 89.6163 93.2632 115.405 61.4508 115.405C48.6014 115.405 36.7347 111.198 27.1531 104.086C28.7931 105.006 30.4856 105.841 32.2242 106.586C38.8143 109.427 45.9146 110.894 53.0909 110.897C66.4569 110.892 79.3286 105.842 89.133 96.7579C98.9374 87.6737 104.952 75.224 105.975 61.8973C106.119 60.6417 106.198 59.3795 106.212 58.1158C106.212 56.5095 106.078 54.6426 105.915 52.9499C105.9 52.7883 105.895 52.6242 105.89 52.4601C105.884 52.2706 105.877 52.0811 105.857 51.8955L105.811 51.9414C105.575 49.7339 105.322 48.0284 105.322 48.0284H63.5206L60.2734 54.1043L52.8093 68.2035H84.393C83.2243 71.698 81.478 74.9718 79.2268 77.8889C76.1572 81.907 72.2021 85.1628 67.6692 87.4033C63.1362 89.6439 58.1476 90.8087 53.0912 90.8072C49.2197 90.7996 45.38 90.1081 41.7492 88.7643C35.4019 86.4442 29.9204 82.2303 26.0463 76.6929C22.1723 71.1555 20.0926 64.5618 20.0887 57.8038C20.0886 53.4697 20.9422 49.1781 22.6006 45.1739C24.2591 41.1698 26.6901 37.5315 29.7546 34.4668C32.8192 31.4021 36.4573 28.9711 40.4614 27.3124C44.4655 25.6538 48.7572 24.8001 53.0912 24.8C60.0857 24.7896 66.9011 27.0116 72.5454 31.1427L76.8781 23.0362L82.0379 13.2891C73.4285 7.67549 63.369 4.69435 53.0912 4.71082C44.006 4.71375 35.148 7.04689 27.3256 11.3947C36.8769 4.35974 48.6784 0.202651 61.4508 0.202651C93.2632 0.202651 119.052 25.9916 119.052 57.804Z" fill="#FF5913"/>
</svg>
