<?xml version="1.0" encoding="utf-8"?>
<!-- Generator: Adobe Illustrator 24.0.0, SVG Export Plug-In . SVG Version: 6.00 Build 0)  -->
<svg version="1.1" id="Layer_1" xmlns="http://www.w3.org/2000/svg" xmlns:xlink="http://www.w3.org/1999/xlink" x="0px" y="0px"
	 width="216px" height="38.4px" viewBox="0 0 216 38.4" style="enable-background:new 0 0 216 38.4;" xml:space="preserve">
<style type="text/css">
	.st0{fill-rule:evenodd;clip-rule:evenodd;}
	.st1{fill-rule:evenodd;clip-rule:evenodd;fill:#F5580F;}
</style>
<path d="M190.6,18.5h-1.7v-4.2h1.7v0h3.6c0.1,0,0.3,0,0.5,0c1.1,0.1,1.9,1,1.9,2.1c0,1.1-0.9,2-1.9,2.1c-0.1,0-0.3,0-0.4,0
	L190.6,18.5L190.6,18.5z M191.9,24.6h-3v-4.2h1.7v0l3.6,0c0.1,0,0.2,0,0.2,0l1.1,0c0.1,0,0.3,0,0.4,0c1.1,0.1,1.9,1,1.9,2.1
	c0,1.1-0.8,2-1.9,2.1c-0.1,0-0.3,0-0.5,0L191.9,24.6L191.9,24.6L191.9,24.6z M193.5,12.3h-5.6l0,0h0l0,0h0l0,0h0l0,0h0l0,0h0l0,0h0
	l0,0h0l0,0h0l0,0h0l0,0h0l0,0h0l0,0h0l0,0h0l0,0h0l0,0h0l0,0h0c-0.1,0-0.3,0.1-0.4,0.2h0l0,0v0l0,0l0,0l0,0h0l0,0v0l0,0v0l0,0l0,0
	l0,0h0l0,0l0,0v0l0,0h0l0,0l0,0h0l0,0l0,0h0v0h0v0l0,0v0l0,0l0,0l0,0v0l0,0l0,0h0l0,0v0l0,0l0,0l0,0l0,0l0,0h0l0,0l0,0h0l0,0
	c-0.1,0.1-0.2,0.3-0.2,0.4v0l0,0v0l0,0v0l0,0v0l0,0v0l0,0v0l0,0v0l0,0v0l0,0v0l0,0l0,0v0l0,0v0l0,0v0l0,0v0l0,0v0l0,0v0l0,0v12.3
	l0,0l0,0c0,0.3,0.1,0.5,0.3,0.7c0.2,0.2,0.4,0.3,0.7,0.3h7.6c0.1,0,0.1,0,0.2,0c1.1,0,2.2-0.5,2.9-1.3l0,0l0,0
	c0.4-0.4,0.6-0.8,0.8-1.3l0,0l0,0l0,0l0-0.1l0,0l0,0l0,0l0,0c0.2-0.6,0.2-1.2,0.2-1.8c-0.2-1.3-0.9-2.5-2.1-3c0.4-0.6,0.7-1.3,0.8-2
	c0.1-0.6,0-1.2-0.2-1.8l0,0l0,0l0,0l0,0l0-0.1l0,0l0,0l0,0c-0.2-0.5-0.5-0.9-0.8-1.3l0,0l0,0c-0.8-0.8-1.8-1.3-2.9-1.3
	c-0.1,0-0.1,0-0.2,0L193.5,12.3z M112.4,13.2c0-0.3,0.1-0.5,0.3-0.7l0,0c0.2-0.2,0.4-0.3,0.7-0.3h7.6c0.4,0,0.8,0.1,1.1,0.2
	c0.4,0.1,0.7,0.3,1,0.5v0c0.5,0.3,0.9,0.8,1.2,1.3c0.4,0.7,0.8,1.6,0.8,3c0,0.9-0.4,1.7-0.6,2.2h0c-0.1,0.2-0.2,0.4-0.4,0.6
	c-0.1,0.2-0.3,0.4-0.5,0.5v0c-0.3,0.3-0.6,0.5-0.9,0.7c-0.3,0.1-0.7,0.2-0.9,0.2l2.8,3.4c0.1,0.1,0.1,0.1,0.1,0.2h0
	c0.1,0.2,0.1,0.4,0.1,0.5v0c0,0.1,0,0.2-0.1,0.3h0c0,0.1-0.1,0.2-0.1,0.2h0c-0.1,0.1-0.1,0.1-0.2,0.2l0,0c-0.1,0.1-0.2,0.1-0.3,0.1
	h0c-0.1,0-0.2,0-0.3,0c-0.4,0-0.6-0.2-0.8-0.5l-3.5-4.4l-5.2,0l0,3.8c0,0.1,0,0.3-0.1,0.4v0c0,0.1-0.1,0.2-0.2,0.3l0,0
	c-0.1,0.1-0.2,0.2-0.3,0.2h0c-0.2,0.1-0.5,0.1-0.8,0c-0.1,0-0.2-0.1-0.3-0.2c-0.2-0.2-0.3-0.4-0.3-0.7L112.4,13.2L112.4,13.2z
	 M183.5,25.7c0.1-0.1,0.1-0.3,0.1-0.4c0-0.3-0.1-0.4-0.2-0.6c0,0,0,0,0-0.1l-4.6-10.4c-1-2.4-5-2.4-6.1,0L168,24.6c0,0,0,0,0,0.1
	c-0.1,0.2-0.2,0.3-0.2,0.6c0,0.2,0,0.3,0.1,0.4l0,0c0.1,0.1,0.1,0.3,0.3,0.4l0,0c0.2,0.2,0.5,0.3,0.8,0.3c0.2,0,0.4,0,0.6-0.2
	c0.2-0.1,0.3-0.3,0.4-0.5c0.9-2.1,1.6-3.7,2.3-5.2c0.8-1.8,1.5-3.5,2.3-5.2l0,0c0.5-1.1,1.7-1.1,2.2,0l0,0c0.7,1.7,1.5,3.5,2.3,5.2
	c0.7,1.6,1.4,3.1,2.3,5.2c0.1,0.2,0.3,0.4,0.4,0.5c0.2,0.1,0.4,0.2,0.6,0.2c0.2,0,0.3,0,0.4-0.1c0.1-0.1,0.3-0.1,0.4-0.3l0,0
	C183.4,26,183.4,25.9,183.5,25.7L183.5,25.7z M114.4,19.6l6.6,0c0.2,0,0.5,0,0.7-0.1h0c0.1,0,0.2-0.1,0.3-0.2l0,0
	c0.2-0.1,0.4-0.3,0.5-0.5c0.5-0.4,0.7-1.4,0.7-2.3c-0.1-0.6-0.3-1.2-0.7-1.7c-0.1-0.1-0.1-0.2-0.2-0.2c-0.1-0.1-0.2-0.1-0.3-0.2v0
	c-0.1-0.1-0.2-0.1-0.3-0.2c-0.1,0-0.2-0.1-0.3-0.1c-0.1,0-0.2,0-0.4,0l-6.6,0L114.4,19.6z M98.4,26.4c-0.6,0-1.3-0.1-1.9-0.4
	c-0.3-0.1-0.6-0.3-0.8-0.4l0,0c-0.5-0.3-0.9-0.8-1.3-1.3c-0.2-0.3-0.3-0.5-0.4-0.8c-0.1-0.3-0.2-0.6-0.3-0.9c-0.1-0.3-0.1-0.6-0.1-1
	V17c0-0.6,0.1-1.3,0.4-1.9h0c0.1-0.3,0.3-0.6,0.4-0.8v0c0.2-0.3,0.4-0.5,0.6-0.7c0.4-0.4,0.9-0.8,1.5-1c0.3-0.1,0.6-0.2,0.9-0.3
	c0.3-0.1,0.6-0.1,1-0.1h4.4c0.7,0,1.3,0.1,1.9,0.4l0,0c0.3,0.1,0.6,0.3,0.8,0.4h0c0.5,0.3,0.9,0.8,1.3,1.3v0
	c0.2,0.3,0.3,0.5,0.4,0.8h0c0.3,0.6,0.4,1.2,0.4,1.9v4.7c0,0.7-0.1,1.3-0.4,1.9c-0.2,0.6-0.6,1.1-1,1.5c-0.2,0.2-0.5,0.4-0.7,0.6h0
	c-0.3,0.2-0.5,0.3-0.8,0.4l0,0c-0.6,0.3-1.2,0.4-1.9,0.4L98.4,26.4z M95.6,21.7c0,0.2,0,0.4,0.1,0.6c0,0.2,0.1,0.4,0.2,0.5
	c0.3,0.7,0.8,1.2,1.5,1.5v0c0.2,0.1,0.3,0.1,0.5,0.2c0.2,0,0.4,0.1,0.6,0.1h4.4c0.2,0,0.4,0,0.6-0.1h0c0.2,0,0.4-0.1,0.5-0.2
	c0.2-0.1,0.3-0.2,0.5-0.3v0c0.2-0.1,0.3-0.2,0.4-0.3l0,0c0.3-0.3,0.5-0.6,0.6-0.9h0c0.1-0.3,0.2-0.7,0.2-1.1V17c0-0.2,0-0.4-0.1-0.6
	c0-0.2-0.1-0.4-0.2-0.5l0,0c-0.1-0.3-0.4-0.6-0.6-0.9l0,0c-0.1-0.1-0.3-0.2-0.4-0.3v0c-0.2-0.1-0.3-0.2-0.5-0.3h0
	c-0.2-0.1-0.3-0.1-0.5-0.2h0c-0.2,0-0.4-0.1-0.6-0.1h-4.4c-0.2,0-0.4,0-0.6,0.1c-0.2,0-0.4,0.1-0.5,0.2c-0.3,0.1-0.6,0.4-0.9,0.6
	c-0.3,0.3-0.5,0.6-0.6,0.9c-0.1,0.2-0.1,0.3-0.2,0.5c0,0.2-0.1,0.4-0.1,0.6L95.6,21.7L95.6,21.7z M79.7,25c-0.2-0.2-0.4-0.5-0.6-0.7
	c-0.2-0.3-0.3-0.5-0.4-0.8c-0.1-0.3-0.2-0.6-0.3-0.9c-0.1-0.3-0.1-0.6-0.1-1V17c0-0.6,0.1-1.3,0.4-1.9c0.2-0.6,0.6-1.1,1-1.5
	c0.2-0.2,0.5-0.4,0.7-0.6h0c0.3-0.2,0.5-0.3,0.8-0.4v0c0.3-0.1,0.6-0.2,0.9-0.3c0.3-0.1,0.6-0.1,1-0.1H90c0.3,0,0.5,0.1,0.7,0.3l0,0
	c0.2,0.2,0.3,0.4,0.3,0.7c0,0.3-0.1,0.5-0.3,0.7l0,0c-0.2,0.2-0.4,0.3-0.7,0.3h-6.9c-0.2,0-0.4,0-0.6,0.1h0c-0.2,0-0.4,0.1-0.5,0.2
	h0c-0.2,0.1-0.3,0.2-0.5,0.3c-0.1,0.1-0.3,0.2-0.4,0.3c-0.3,0.3-0.5,0.6-0.6,0.9c-0.2,0.3-0.2,0.7-0.2,1.1v4.7c0,0.2,0,0.4,0.1,0.6
	v0c0,0.2,0.1,0.4,0.2,0.5c0.1,0.2,0.2,0.3,0.3,0.5c0.2,0.3,0.5,0.6,0.8,0.8v0c0.2,0.1,0.3,0.2,0.5,0.3c0.3,0.1,0.7,0.2,1.1,0.2H90
	c0.3,0,0.5,0.1,0.7,0.3l0,0c0.1,0.1,0.2,0.2,0.2,0.3c0,0.1,0.1,0.2,0.1,0.4c0,0.3-0.1,0.5-0.3,0.7s-0.4,0.3-0.7,0.3h-6.9
	c-0.6,0-1.3-0.1-1.9-0.4v0c-0.3-0.1-0.6-0.3-0.8-0.4v0C80.1,25.4,79.9,25.3,79.7,25L79.7,25z M72.1,21.6c-0.1,0-0.3,0-0.4-0.1h0
	c-0.1,0-0.2-0.1-0.3-0.2h0c-0.2-0.2-0.3-0.4-0.3-0.7c0-0.3,0.1-0.5,0.3-0.7c0.2-0.2,0.4-0.3,0.7-0.3h0.6c0.3,0,0.5,0.1,0.7,0.3
	c0.2,0.2,0.3,0.4,0.3,0.7c0,0.1,0,0.3-0.1,0.4v0c0,0.1-0.1,0.2-0.2,0.3l0,0c-0.1,0.1-0.2,0.2-0.3,0.2h0c-0.1,0-0.2,0.1-0.4,0.1
	L72.1,21.6L72.1,21.6z M59.5,19.6c0-0.4,0.2-0.8,0.6-0.9c0.1,0,0.2-0.1,0.4-0.1h5.5c0.1,0,0.3,0,0.4,0.1c0.1,0,0.2,0.1,0.3,0.2v0
	c0.1,0.1,0.2,0.2,0.2,0.3v0c0,0.1,0.1,0.2,0.1,0.4v2.1c0,0.6-0.1,1.3-0.4,1.8c-0.1,0.3-0.3,0.6-0.4,0.8v0c-0.5,0.8-1.2,1.4-2.1,1.7
	c-0.3,0.1-0.6,0.2-0.9,0.3c-0.3,0.1-0.6,0.1-1,0.1h-4.4c-0.7,0-1.3-0.1-1.8-0.4c-0.3-0.1-0.6-0.3-0.8-0.4h0
	c-0.3-0.2-0.5-0.4-0.7-0.6c-0.7-0.7-1.1-1.5-1.3-2.4C53,22.3,53,22,53,21.7V17c0-0.3,0-0.6,0.1-0.9c0.1-0.3,0.2-0.6,0.3-0.9
	c0.2-0.6,0.6-1.1,1-1.5c0.7-0.7,1.5-1.1,2.4-1.3c0.3-0.1,0.6-0.1,1-0.1h7.5c0.3,0,0.5,0.1,0.7,0.3c0.1,0.1,0.2,0.2,0.2,0.3v0
	c0.1,0.2,0.1,0.5,0,0.8c0,0.1-0.1,0.2-0.2,0.3c-0.2,0.2-0.4,0.3-0.7,0.3h-7.5c-0.2,0-0.4,0-0.6,0.1h0c-0.2,0-0.4,0.1-0.5,0.2
	c-0.2,0.1-0.3,0.2-0.5,0.3c-0.3,0.2-0.6,0.5-0.8,0.8h0c-0.1,0.1-0.2,0.3-0.3,0.5v0c-0.1,0.2-0.1,0.3-0.2,0.5v0
	c0,0.2-0.1,0.4-0.1,0.5v4.7c0,0.2,0,0.4,0.1,0.6v0c0,0.2,0.1,0.4,0.2,0.5c0.1,0.2,0.2,0.3,0.3,0.5c0.2,0.3,0.5,0.6,0.8,0.8v0
	c0.1,0.1,0.3,0.2,0.5,0.3c0.2,0.1,0.3,0.1,0.5,0.2h0c0.2,0,0.4,0.1,0.5,0.1h4.4c0.2,0,0.4,0,0.6-0.1h0c0.2,0,0.4-0.1,0.5-0.2
	c0.2-0.1,0.3-0.2,0.5-0.3v0c0.3-0.2,0.6-0.5,0.8-0.7h0c0.1-0.1,0.2-0.3,0.3-0.5v0c0.1-0.2,0.1-0.3,0.2-0.5v0c0-0.2,0.1-0.4,0.1-0.5
	v-1.1h-4.5c-0.3,0-0.5-0.1-0.7-0.3C59.6,20.1,59.5,19.9,59.5,19.6z M216,13.4c0,0.3-0.1,0.5-0.3,0.7c-0.2,0.2-0.4,0.3-0.7,0.3h-7.5
	c-0.1,0-0.3,0-0.5,0c-1.1,0.1-1.9,1-1.9,2c0,1.1,0.9,1.9,1.9,2c0.1,0,0.3,0,0.4,0l4.1,0c2.4,0,3.9,1.5,4.2,3.4
	c0.1,0.6,0,1.2-0.2,1.8l0,0l0,0l0,0l0,0l0,0.1l0,0l0,0l0,0c-0.2,0.5-0.5,0.9-0.8,1.3l0,0l0,0c-0.8,0.8-1.8,1.3-2.9,1.3
	c-0.1,0-0.1,0-0.2,0h-7.5c-0.1,0-0.3,0-0.4-0.1h0c-0.1,0-0.2-0.1-0.3-0.2l0,0c-0.1-0.1-0.2-0.2-0.2-0.3v0c-0.1-0.2-0.1-0.5,0-0.8
	c0-0.1,0.1-0.2,0.2-0.3c0.2-0.2,0.4-0.3,0.7-0.3h7.5c0.1,0,0.3,0,0.5,0c1.1-0.1,1.9-1,1.9-2c0-1.1-0.9-1.9-1.9-2c-0.1,0-0.3,0-0.4,0
	l-4.1,0c-2.4,0-3.9-1.5-4.2-3.4c-0.1-0.6,0-1.2,0.2-1.8l0,0l0,0l0,0l0,0l0-0.1l0,0l0,0l0,0c0.1-0.4,0.3-0.7,0.5-1
	c0.1-0.1,0.2-0.2,0.3-0.3l0,0l0,0c0.8-0.8,1.8-1.3,2.9-1.3c0.1,0,0.1,0,0.2,0h7.5c0.1,0,0.3,0,0.4,0.1h0c0.1,0,0.2,0.1,0.3,0.2l0,0
	c0.1,0.1,0.2,0.2,0.2,0.3v0C216,13.1,216,13.3,216,13.4L216,13.4z"/>
<path d="M175.4,21.5c-0.1,0-0.3,0-0.4-0.1h0c-0.1,0-0.2-0.1-0.3-0.2h0c-0.2-0.2-0.3-0.4-0.3-0.7c0-0.3,0.1-0.5,0.3-0.7
	c0.2-0.2,0.4-0.3,0.7-0.3h0.6c0.3,0,0.5,0.1,0.7,0.3c0.2,0.2,0.3,0.4,0.3,0.7c0,0.1,0,0.3-0.1,0.4v0c0,0.1-0.1,0.2-0.2,0.3l0,0
	c-0.1,0.1-0.2,0.2-0.3,0.2h0c-0.1,0-0.2,0.1-0.4,0.1L175.4,21.5z M157.7,24.5h5.6c0.3,0,0.5,0.1,0.7,0.3l0,0
	c0.1,0.1,0.2,0.2,0.2,0.3c0,0.1,0.1,0.2,0.1,0.4c0,0.3-0.1,0.5-0.3,0.7c-0.2,0.2-0.4,0.3-0.7,0.3h-9.1c-0.3,0-0.5-0.1-0.7-0.3
	c-0.2-0.2-0.3-0.4-0.3-0.7l0,0l0,0V13.1c0-0.3,0.1-0.5,0.3-0.7l0,0c0.1-0.1,0.2-0.2,0.3-0.2c0.1,0,0.2-0.1,0.4-0.1
	c0.3,0,0.5,0.1,0.7,0.3c0.2,0.2,0.3,0.4,0.3,0.7v11.4H157.7z M135.5,24.5h5.6c0.3,0,0.5,0.1,0.7,0.3l0,0c0.2,0.2,0.3,0.4,0.3,0.7
	c0,0.3-0.1,0.5-0.3,0.7c-0.2,0.2-0.4,0.3-0.7,0.3h-10.4c-0.3,0-0.5-0.1-0.7-0.3c-0.2-0.2-0.3-0.4-0.3-0.7l0,0l0,0V13.1l0,0v0l0,0v0
	l0,0v0l0,0v0l0,0v0l0,0l0,0v0l0,0v0l0,0v0l0,0v0l0,0v0l0,0l0,0l0,0v0l0,0v0c0-0.2,0.1-0.3,0.2-0.4l0,0h0l0,0v0l0,0v0l0,0l0,0l0,0
	l0,0l0,0h0l0,0l0,0l0,0l0,0l0,0l0,0l0,0v0l0,0h0v0h0l0,0l0,0h0l0,0l0,0l0,0l0,0v0l0,0l0,0l0,0h0l0,0v0l0,0l0,0h0l0,0v0l0,0v0
	c0.1-0.1,0.3-0.2,0.4-0.2h0l0,0h0l0,0h0l0,0h0l0,0h0l0,0h0l0,0h0l0,0h0l0,0h0l0,0h0l0,0h0l0,0h0l0,0h0l0,0h0l0,0h0l0,0h10.4
	c0.3,0,0.5,0.1,0.7,0.3l0,0c0.2,0.2,0.3,0.4,0.3,0.7c0,0.3-0.1,0.5-0.3,0.7c-0.2,0.2-0.4,0.3-0.7,0.3h-9.3v4.5h7.4
	c0.3,0,0.5,0.1,0.7,0.3l0,0c0.2,0.2,0.3,0.4,0.3,0.7c0,0.3-0.1,0.5-0.3,0.7c-0.2,0.2-0.4,0.3-0.7,0.3h-7.4v3.9L135.5,24.5
	L135.5,24.5z"/>
<g>
	<path class="st0" d="M19.2,0c2.2,0,4.3,0.4,6.3,1.1c2,0.7,3.9,1.8,5.6,3.1l1,0.8l-0.9,0.9l-3.4,3.4c1.8,1.6,3.2,3.6,3.9,6h5.5h1.1
		v1.1v2.8v0v0v0v0v0v0.1v0.1l0,0c-0.1,5.2-2.2,9.9-5.7,13.3c-3.5,3.4-8.2,5.6-13.5,5.6c-5.3,0-10.1-2.1-13.6-5.6
		C2.1,29.3,0,24.5,0,19.2C0,13.9,2.1,9.1,5.6,5.6C9.1,2.2,13.9,0,19.2,0L19.2,0z M26.9,8.5L30.4,5c-3.1-2.4-7-3.9-11.2-3.9
		c-10,0-18,8.1-18,18c0,10,8.1,18,18,18c9.9,0,18-8,18-17.9l0,0v-0.1v0v0v0v0v0v-2.8H32h-7.2L19.2,22h12c-1.3,5.4-6.1,9.5-12,9.5
		c-6.8,0-12.3-5.5-12.3-12.3c0-6.8,5.5-12.3,12.3-12.3c2.6,0,5.1,0.8,7.1,2.2L26.9,8.5L26.9,8.5z"/>
	<path class="st1" d="M27.8,9.2c1.8,1.6,3.2,3.6,3.9,6h-6.9h-0.5L24,15.6l-5.6,5.6l-1.9,1.9h2.7h10.4c-0.7,1.9-1.9,3.6-3.5,4.8
		c-1.9,1.5-4.3,2.4-6.9,2.4c-3.1,0-5.9-1.2-7.9-3.3c-2-2-3.3-4.8-3.3-7.9c0-3.1,1.2-5.9,3.3-7.9c2-2,4.8-3.3,7.9-3.3
		c1.2,0,2.3,0.2,3.4,0.5c1.1,0.3,2.1,0.9,3.1,1.5l0.8,0.5l0.7-0.7L27.8,9.2L27.8,9.2z"/>
</g>
</svg>
