<svg width="980" height="400" viewBox="0 0 980 400" fill="none" xmlns="http://www.w3.org/2000/svg">
<path opacity="0.14" d="M100 100H300V300H244C164.471 300 100 235.529 100 156V100Z" stroke="white" stroke-width="40"/>
<path d="M320 160C320 171.046 311.046 180 300 180L280 180L280 120L320 80L320 160Z" fill="url(#paint0_linear_26_3396)"/>
<path d="M220 120L220 100C220 88.9543 228.954 80 240 80L320 80L280 120L220 120Z" fill="url(#paint1_linear_26_3396)"/>
<path fill-rule="evenodd" clip-rule="evenodd" d="M400 80H420H480V100H420V120H480V140H420V160H480V180H420H400V160V140V120V100V80ZM420 220H400V300V320H420H460H480H500V300H480V220H460V300H420V220ZM820 220H840H860C871.172 220 876.757 220 881.248 221.571C889.291 224.386 895.614 230.709 898.429 238.752C900 243.243 900 248.828 900 260C900 271.172 900 276.757 898.429 281.248C895.614 289.291 889.291 295.614 881.248 298.429C876.757 300 871.172 300 860 300H840V320H820V300V280V240V220ZM860 280H840V240H860C865.82 240 869.326 240.008 871.96 240.162C873.818 240.271 874.534 240.425 874.675 240.46C876.946 241.266 878.734 243.054 879.54 245.325C879.575 245.466 879.729 246.182 879.838 248.04C879.992 250.674 880 254.18 880 260C880 265.82 879.992 269.326 879.838 271.96C879.729 273.819 879.575 274.534 879.54 274.675C878.734 276.946 876.946 278.734 874.675 279.54C874.534 279.575 873.818 279.729 871.96 279.838C869.326 279.992 865.82 280 860 280ZM874.684 240.463C874.695 240.466 874.702 240.468 874.702 240.468C874.702 240.468 874.701 240.467 874.699 240.467L874.698 240.466L874.684 240.463ZM879.532 245.298C879.532 245.298 879.534 245.304 879.537 245.316C879.534 245.305 879.532 245.299 879.532 245.298ZM879.532 274.702C879.532 274.702 879.534 274.696 879.537 274.684L879.534 274.696L879.532 274.702ZM874.702 279.532C874.702 279.532 874.696 279.534 874.684 279.537L874.697 279.533L874.702 279.532ZM540 220H520V240V260V280V300V320H540H600V300H540V280H600V260H540V240H600V220H540ZM720 80H700V100V119V139V159V179H720H780V159H720V139H780V119H720V100H780V80H720ZM530.5 100H520V159H530.5C540.996 159 547.327 158.975 551.982 158.49C555.125 158.163 556.267 157.723 556.538 157.589C556.638 157.54 556.619 157.533 556.537 157.589C557.34 157.036 558.036 156.34 558.589 155.537C558.533 155.619 558.54 155.638 558.589 155.538C558.723 155.267 559.163 154.125 559.49 150.982C559.975 146.327 560 139.996 560 129.5C560 119.004 559.975 112.673 559.49 108.018C559.163 104.875 558.723 103.733 558.589 103.462C558.54 103.362 558.533 103.381 558.589 103.463C558.036 102.659 557.34 101.964 556.537 101.411C556.619 101.467 556.638 101.46 556.538 101.411C556.267 101.277 555.125 100.837 551.982 100.51C547.327 100.025 540.996 100 530.5 100ZM520 80H500V100V159V179H520H530.5C550.639 179 560.709 179 567.881 174.061C570.692 172.125 573.125 169.692 575.061 166.881C580 159.709 580 149.639 580 129.5C580 109.361 580 99.2914 575.061 92.1191C573.125 89.3082 570.692 86.875 567.881 84.9393C560.709 80 550.639 80 530.5 80H520ZM600 100V80H620H680V100H620V159H660V140H640V120H660H680V140V159V179H660H620H600V159V100ZM750 220H720V240H750V320H770V240H800V220H770H750ZM640 220H620V260V280V320H640V280H680V320H700V280V260V220H680V260H640V220Z" fill="white"/>
<defs>
<linearGradient id="paint0_linear_26_3396" x1="300" y1="180" x2="300" y2="80" gradientUnits="userSpaceOnUse">
<stop stop-color="#888888"/>
<stop offset="1" stop-color="#565656"/>
</linearGradient>
<linearGradient id="paint1_linear_26_3396" x1="220" y1="100" x2="320" y2="100" gradientUnits="userSpaceOnUse">
<stop stop-color="#CECECE"/>
<stop offset="1" stop-color="#8E8E8E"/>
</linearGradient>
</defs>
</svg>
