<svg width="120" height="120" viewBox="0 0 50 50" fill="none" xmlns="http://www.w3.org/2000/svg">
<path opacity="0.1" fill-rule="evenodd" clip-rule="evenodd" d="M0 0H50V50H34.1667C15.2969 50 0 34.7031 0 15.8333V0ZM8.33333 8.33333V15.8333C8.33333 30.1007 19.8993 41.6667 34.1667 41.6667H41.6667V8.33333H8.33333Z" fill="#1565C0"/>
<path d="M50.0001 16.6667C50.0001 18.9679 48.1347 20.8333 45.8334 20.8333H41.6667V8.33333L50.0001 0V16.6667Z" fill="url(#paint0_linear_2028_1798)"/>
<path d="M29.1667 8.33333V4.16667C29.1667 1.86548 31.0322 0 33.3334 0H50.0001L41.6667 8.33333H29.1667Z" fill="url(#paint1_linear_2028_1798)"/>
<!--<path fill-rule="evenodd" clip-rule="evenodd" d="M66.6667 0H70.8334H83.3334V4.16667H70.8334V8.33333H83.3334V12.5H70.8334V16.6667H83.3334V20.8333H70.8334H66.6667V16.6667V12.5V8.33333V4.16667V0ZM70.8334 29.1667H66.6667V45.8333V50H70.8334H79.1667H83.3334H87.5001V45.8333H83.3334V29.1667H79.1667V45.8333H70.8334V29.1667ZM154.167 29.1667H158.333H162.5C164.828 29.1667 165.991 29.1667 166.927 29.494C168.602 30.0804 169.92 31.3977 170.506 33.0733C170.833 34.009 170.833 35.1725 170.833 37.5C170.833 39.8275 170.833 40.991 170.506 41.9267C169.92 43.6023 168.602 44.9196 166.927 45.506C165.991 45.8333 164.828 45.8333 162.5 45.8333H158.333V50H154.167V45.8333V41.6667V33.3333V29.1667ZM162.5 41.6667H158.333V33.3333H162.5C163.713 33.3333 164.443 33.335 164.992 33.3671C165.379 33.3898 165.528 33.4219 165.557 33.4292C166.031 33.5971 166.403 33.9696 166.571 34.4427C166.578 34.4721 166.61 34.6212 166.633 35.0083C166.665 35.5571 166.667 36.2875 166.667 37.5C166.667 38.7125 166.665 39.4429 166.633 39.9917C166.61 40.379 166.578 40.5279 166.571 40.5573C166.403 41.0304 166.031 41.4029 165.557 41.5708C165.528 41.5781 165.379 41.6102 164.992 41.6329C164.443 41.665 163.713 41.6667 162.5 41.6667ZM165.559 33.4298C165.562 33.4304 165.563 33.4308 165.563 33.4308C165.563 33.4308 165.563 33.4306 165.562 33.4306L165.562 33.4304L165.559 33.4298ZM166.569 34.4371C166.569 34.4371 166.57 34.4383 166.57 34.4408C166.57 34.4385 166.569 34.4373 166.569 34.4371ZM166.569 40.5629C166.569 40.5629 166.57 40.5617 166.57 40.5592L166.57 40.5617L166.569 40.5629ZM165.563 41.5692C165.563 41.5692 165.562 41.5696 165.559 41.5702L165.562 41.5694L165.563 41.5692ZM95.8334 29.1667H91.6667V33.3333V37.5V41.6667V45.8333V50H95.8334H108.333V45.8333H95.8334V41.6667H108.333V37.5H95.8334V33.3333H108.333V29.1667H95.8334ZM133.333 0H129.167V4.16667V8.125V12.2917V16.4583V20.625H133.333H145.833V16.4583H133.333V12.2917H145.833V8.125H133.333V4.16667H145.833V0H133.333ZM93.8542 4.16667H91.6667V16.4583H93.8542C96.0409 16.4583 97.3599 16.4531 98.3297 16.3521C98.9845 16.284 99.2224 16.1923 99.2788 16.1644C99.2997 16.1542 99.2957 16.1527 99.2786 16.1644C99.4459 16.0492 99.5909 15.9042 99.7061 15.7369C99.6945 15.754 99.6959 15.7579 99.7061 15.7371C99.734 15.6806 99.8257 15.4427 99.8938 14.7879C99.9949 13.8181 100 12.4992 100 10.3125C100 8.12583 99.9949 6.80687 99.8938 5.83708C99.8257 5.18229 99.734 4.94437 99.7061 4.88792C99.6959 4.86708 99.6945 4.87104 99.7061 4.88812C99.5909 4.72062 99.4459 4.57583 99.2786 4.46063C99.2957 4.47229 99.2997 4.47083 99.2788 4.46063C99.2224 4.43271 98.9845 4.34104 98.3297 4.27292C97.3599 4.17188 96.0409 4.16667 93.8542 4.16667ZM91.6667 0H87.5001V4.16667V16.4583V20.625H91.6667H93.8542C98.0499 20.625 100.148 20.625 101.642 19.596C102.228 19.1927 102.734 18.6858 103.138 18.1002C104.167 16.606 104.167 14.5081 104.167 10.3125C104.167 6.11687 104.167 4.01904 103.138 2.52481C102.734 1.93921 102.228 1.43229 101.642 1.02902C100.148 9.93411e-08 98.0499 0 93.8542 0H91.6667ZM108.333 4.16667V0H112.5H125V4.16667H112.5V16.4583H120.833V12.5H116.667V8.33333H120.833H125V12.5V16.4583V20.625H120.833H112.5H108.333V16.4583V4.16667ZM139.583 29.1667H133.333V33.3333H139.583V50H143.75V33.3333H150V29.1667H143.75H139.583ZM116.667 29.1667H112.5V37.5V41.6667V50H116.667V41.6667H125V50H129.167V41.6667V37.5V29.1667H125V37.5H116.667V29.1667Z" fill="white"/>-->
<defs>
<linearGradient id="paint0_linear_2028_1798" x1="45.8334" y1="20.8333" x2="45.8334" y2="0" gradientUnits="userSpaceOnUse">
<stop stop-color="#3688E5"/>
<stop offset="1" stop-color="#1C68BE"/>
</linearGradient>
<linearGradient id="paint1_linear_2028_1798" x1="29.1667" y1="4.16667" x2="50.0001" y2="4.16667" gradientUnits="userSpaceOnUse">
<stop stop-color="#70B3FF"/>
<stop offset="1" stop-color="#3688E5"/>
</linearGradient>
</defs>
</svg>
