<svg xmlns="http://www.w3.org/2000/svg" width="48" height="48" viewBox="0 0 48 48">
  <g fill="#818181" fill-rule="evenodd">
    <path fill="#231F20" d="M24.047 0c5.385 0 10.595 1.822 14.81 5.18l1.248.982L39 7.287l-4.263 4.277c2.305 1.996 4.01 4.594 4.91 7.493h8.29v5.228l-.016.032c-.19 13.228-11.037 23.81-24.221 23.62C10.516 47.747-.032 36.863.158 23.62.348 10.519 10.989 0 24.048 0z"/>
    <path fill="#FF4713" d="M34.737 11.549c2.305 1.996 4.01 4.594 4.91 7.493h-9.205l-.41.411-6.98 7.018-2.415 2.424h16.405c-2.7 7.208-10.72 10.852-17.905 8.127-7.184-2.725-10.816-10.757-8.1-17.965 2.716-7.207 10.72-10.851 17.905-8.126 1.105.412 2.147.966 3.11 1.647l.964.681.837-.84.884-.87z"/>
    <path fill="#FFF" d="M33.616 10.661l4.373-4.388C28.263-1.442 14.116.206 6.411 9.98c-7.706 9.774-6.048 23.953 3.694 31.683 9.742 7.731 23.874 6.068 31.58-3.69 3.11-3.945 4.815-8.824 4.847-13.862v-3.628h-15.49l-6.979 7.002h14.89c-1.927 8.254-10.169 13.37-18.395 11.438-8.226-1.933-13.326-10.202-11.4-18.456C11.084 12.214 19.31 7.097 27.537 9.03c1.91.443 3.726 1.267 5.32 2.392l.759-.76z"/>
  </g>
</svg>
