<svg width="408" height="116" viewBox="0 0 408 116" fill="none" xmlns="http://www.w3.org/2000/svg">
<path fill-rule="evenodd" clip-rule="evenodd" d="M119.052 57.804C119.052 89.6163 93.2632 115.405 61.4508 115.405C48.6014 115.405 36.7347 111.198 27.1531 104.086C28.7931 105.006 30.4856 105.841 32.2242 106.586C38.8143 109.427 45.9146 110.894 53.0909 110.897C66.4569 110.892 79.3286 105.842 89.133 96.7579C98.9374 87.6737 104.952 75.224 105.975 61.8973C106.119 60.6417 106.198 59.3795 106.212 58.1158C106.212 56.5095 106.078 54.6426 105.915 52.9499C105.9 52.7883 105.895 52.6242 105.89 52.4601C105.884 52.2706 105.877 52.0811 105.857 51.8955L105.811 51.9414C105.575 49.7339 105.322 48.0284 105.322 48.0284H63.5206L60.2734 54.1043L52.8093 68.2035H84.393C83.2243 71.698 81.478 74.9718 79.2268 77.8889C76.1572 81.907 72.2021 85.1628 67.6692 87.4033C63.1362 89.6439 58.1476 90.8087 53.0912 90.8072C49.2197 90.7996 45.38 90.1081 41.7492 88.7643C35.4019 86.4442 29.9204 82.2303 26.0463 76.6929C22.1723 71.1555 20.0926 64.5618 20.0887 57.8038C20.0886 53.4697 20.9422 49.1781 22.6006 45.1739C24.2591 41.1698 26.6901 37.5315 29.7546 34.4668C32.8192 31.4021 36.4573 28.9711 40.4614 27.3124C44.4655 25.6538 48.7572 24.8001 53.0912 24.8C60.0857 24.7896 66.9011 27.0116 72.5454 31.1427L76.8781 23.0362L82.0379 13.2891C73.4285 7.67549 63.369 4.69435 53.0912 4.71082C44.006 4.71375 35.148 7.04689 27.3256 11.3947C36.8769 4.35974 48.6784 0.202651 61.4508 0.202651C93.2632 0.202651 119.052 25.9916 119.052 57.804Z" fill="#FF5913"/>
<path d="M198.076 70.5202C196.02 72.9909 193.433 74.9649 190.506 76.2943C187.89 77.4439 185.061 78.0262 182.204 78.0029C178.553 78.0679 174.948 77.1821 171.743 75.4325C171.627 75.3679 171.529 75.286 171.415 75.2193C168.545 73.5645 166.18 71.1598 164.573 68.263C162.824 65.0578 161.938 61.453 162.003 57.8022C161.939 54.1514 162.824 50.5467 164.573 47.3414C166.18 44.445 168.544 42.0406 171.413 40.3859C171.528 40.3191 171.627 40.2366 171.743 40.1718C174.948 38.4238 178.553 37.5381 182.204 37.6015C185.062 37.5779 187.894 38.1547 190.516 39.2948L196.461 28.1131C196.412 28.0911 196.368 28.0625 196.318 28.0407C191.625 26.0646 186.574 25.0828 181.483 25.1572C175.861 25.0991 170.302 26.3318 165.232 28.7604C164.807 28.9665 164.359 29.1244 163.942 29.3487C158.863 32.0278 154.62 36.0532 151.677 40.9838C148.667 46.0707 147.122 51.8915 147.214 57.802C147.122 63.7135 148.667 69.5351 151.677 74.6234C154.621 79.5523 158.864 83.5764 163.942 86.2552C164.36 86.4799 164.807 86.6383 165.233 86.845C170.272 89.2684 175.801 90.5018 181.393 90.45C186.499 90.5216 191.565 89.5388 196.274 87.5632C196.335 87.5365 196.389 87.5012 196.451 87.4743C200.727 85.6245 204.5 82.7798 207.455 79.177L198.076 70.5202Z" fill="white"/>
<path d="M228.783 86.2098C223.67 83.5262 219.395 79.4859 216.428 74.5323C213.426 69.4742 211.881 63.6839 211.965 57.8022C211.881 51.9206 213.426 46.1304 216.428 41.0721C219.397 36.1201 223.671 32.0802 228.783 29.3947C234.242 26.5214 240.336 25.0645 246.504 25.1575C252.659 25.0609 258.739 26.5182 264.181 29.3947C269.279 32.0977 273.549 36.1336 276.535 41.0721C279.565 46.1209 281.127 51.9146 281.044 57.8022C281.127 63.6899 279.565 69.4838 276.535 74.5323C273.551 79.4724 269.281 83.5087 264.181 86.2098C258.739 89.0888 252.659 90.5474 246.504 90.4502C240.335 90.5438 234.241 89.0856 228.783 86.2098ZM256.605 75.4326C259.584 73.7461 262.036 71.2636 263.685 68.263C265.433 65.0576 266.319 61.4529 266.255 57.8022C266.318 54.1516 265.433 50.547 263.685 47.3414C262.036 44.3408 259.584 41.8583 256.605 40.1719C253.523 38.4396 250.039 37.5529 246.504 37.6015C242.97 37.5525 239.485 38.4392 236.404 40.1719C233.424 41.8579 230.973 44.3405 229.324 47.3414C227.575 50.5467 226.69 54.1515 226.754 57.8022C226.689 61.453 227.575 65.0579 229.324 68.263C230.973 71.264 233.424 73.7466 236.404 75.4326C239.485 77.1667 242.97 78.0536 246.504 78.0029C250.039 78.0532 253.524 77.1663 256.605 75.4326Z" fill="white"/>
<path d="M332.27 89.3672L320.095 71.7825H306.658V89.3672H292.048V26.2371H319.372C324.371 26.1206 329.338 27.0737 333.938 29.0325C337.815 30.696 341.121 33.4554 343.452 36.9719C345.737 40.613 346.898 44.8475 346.788 49.1452C346.902 53.4361 345.724 57.6623 343.407 61.276C341.041 64.7626 337.701 67.4751 333.803 69.0751L347.961 89.3672H332.27ZM328.571 40.984C325.668 38.8995 322.127 37.8946 318.562 38.1429H306.658V60.1474H318.562C322.134 60.3967 325.68 59.3741 328.571 57.2607C329.723 56.2585 330.63 55.0061 331.225 53.5996C331.819 52.1931 332.084 50.6696 331.999 49.1452C332.093 47.6129 331.832 46.0797 331.238 44.6644C330.643 43.2491 329.731 41.9898 328.571 40.984Z" fill="white"/>
<path d="M407.21 77.6441V89.3672H358.331V26.2371H406.037V37.9635H372.849V51.6699H402.159V63.0342H372.849V77.6439L407.21 77.6441Z" fill="white"/>
</svg>
